# 
# Generated by Sweet Home 3D - Fri Feb 28 17:57:07 GMT 2025
# http://www.sweethome3d.com/
# 
mtllib house.mtl
g ground_1
usemtl ground_1
v 192.54999 0.0 196.21017
v 192.54999 0.0 771.7103
v 1398.05 0.0 771.7103
v 1398.05 0.0 196.21017
vn 0.0 1.0 0.0
vn 0.0 0.0 0.0
f 1//1 2//1 3//1
f 1//1 3//1 4//1
g wall_1_2
usemtl wall_1_2
v 196.30002 0.0 196.21017
v 196.30002 0.0 199.96017
v 1394.3 0.0 199.96017
vn 0.0 -1.0 0.0
f 4//3 7//3 6//3
f 4//3 6//3 5//3
g wall_1_3
usemtl wall_1_2
v 196.30002 0.0 203.71017
v 1390.55 0.0 203.71017
f 7//3 9//3 8//3
f 7//3 8//3 6//3
g wall_1_4
usemtl wall_1_2
v 196.30002 250.0 199.96017
v 196.30002 250.0 196.21017
v 1398.05 250.0 196.21017
v 1394.3 250.0 199.96017
vn -1.0 0.0 0.0
vn 0.70710677 0.0 0.70710677
vn 0.0 0.0 -1.0
f 5//4 6//4 10//4 11//4
f 7//5 4//5 12//5 13//5
f 4//6 5//6 11//6 12//6
g wall_1_5
usemtl wall_1_2
v 196.30002 250.0 203.71017
v 1390.55 250.0 203.71017
vn 0.0 0.0 1.0
f 6//4 8//4 14//4 10//4
f 8//7 9//7 15//7 14//7
f 9//5 7//5 13//5 15//5
g wall_1_6
usemtl wall_1_2
f 11//1 10//1 13//1
f 11//1 13//1 12//1
g wall_1_7
usemtl wall_1_2
f 10//1 14//1 15//1
f 10//1 15//1 13//1
g wall_2_8
usemtl wall_1_2
v 1394.3 0.0 767.9602
v 1398.05 0.0 771.7102
f 17//3 16//3 7//3
f 17//3 7//3 4//3
g wall_2_9
usemtl wall_1_2
v 1390.55 0.0 764.2102
f 16//3 18//3 9//3
f 16//3 9//3 7//3
g wall_2_10
usemtl wall_1_2
v 1398.05 250.0 771.7102
v 1394.3 250.0 767.9602
vn -0.70710677 0.0 -0.70710677
vn -0.70710677 0.0 0.70710677
vn 1.0 0.0 0.0
f 4//8 7//8 13//8 12//8
f 16//9 17//9 19//9 20//9
f 17//10 4//10 12//10 19//10
g wall_2_11
usemtl wall_1_2
v 1390.55 250.0 764.2102
f 7//8 9//8 15//8 13//8
f 9//4 18//4 21//4 15//4
f 18//9 16//9 20//9 21//9
g wall_2_12
usemtl wall_1_2
f 12//1 13//1 20//1
f 12//1 20//1 19//1
g wall_2_13
usemtl wall_1_2
f 13//1 15//1 21//1
f 13//1 21//1 20//1
g wall_3_14
usemtl wall_1_2
v 196.30002 0.0 767.9603
v 192.55002 0.0 771.7103
f 17//3 23//3 22//3
f 17//3 22//3 16//3
g wall_3_15
usemtl wall_1_2
v 200.05002 0.0 764.2103
f 16//3 22//3 24//3
f 16//3 24//3 18//3
g wall_3_16
usemtl wall_1_2
v 192.55002 250.0 771.7103
v 196.30002 250.0 767.9603
vn 0.0000001 0.0 1.0
vn 0.70710677 0.0 -0.70710677
f 22//8 23//8 25//8 26//8
f 23//11 17//11 19//11 25//11
f 17//12 16//12 20//12 19//12
g wall_3_17
usemtl wall_1_2
v 200.05002 250.0 764.2103
vn -0.0000001 0.0 -1.0
f 18//13 24//13 27//13 21//13
f 24//8 22//8 26//8 27//8
f 16//12 18//12 21//12 20//12
g wall_3_18
usemtl wall_1_2
f 20//1 26//1 25//1
f 20//1 25//1 19//1
g wall_3_19
usemtl wall_1_2
f 21//1 27//1 26//1
f 21//1 26//1 20//1
g wall_4_20
usemtl wall_1_2
v 192.54999 0.0 199.96017
v 196.29999 0.0 199.96017
f 29//3 22//3 23//3
f 29//3 23//3 28//3
g wall_4_21
usemtl wall_1_2
v 200.04999 0.0 199.96017
f 30//3 24//3 22//3
f 30//3 22//3 29//3
g wall_4_22
usemtl wall_1_2
v 192.54999 250.0 199.96017
v 196.29999 250.0 199.96017
vn -1.0 0.0 0.0000001
f 28//14 23//14 25//14 31//14
f 23//5 22//5 26//5 25//5
f 29//6 28//6 31//6 32//6
g wall_4_23
usemtl wall_1_2
v 200.04999 250.0 199.96017
vn 1.0 0.0 -0.0000001
f 22//5 24//5 27//5 26//5
f 24//15 30//15 33//15 27//15
f 30//6 29//6 32//6 33//6
g wall_4_24
usemtl wall_1_2
f 31//1 25//1 26//1
f 31//1 26//1 32//1
g wall_4_25
usemtl wall_1_2
f 32//1 26//1 27//1
f 32//1 27//1 33//1
